<svg height="512" viewBox="0 0 64 64" width="512" xmlns="http://www.w3.org/2000/svg"><g id="Filled_outline" data-name="Filled outline"><path d="m12 19h40v18h-40z" fill="#8ec13f"/><circle cx="32" cy="28" fill="#c8d952" r="9"/><path d="m55 45 4-7h2v-10h-4a4.933 4.933 0 0 0 -4 2l-5 6a2.715 2.715 0 0 0 0 4l1 1-4 4h-4.893a2.075 2.075 0 0 0 -2.08 1.664 2 2 0 0 0 1.973 2.336h6z" fill="#ffd782"/><path d="m3 21 6-6 11 1a3.037 3.037 0 0 1 3 3h-11v7h4a2 2 0 0 1 2 2 2 2 0 0 1 -2 2h-4v5l-7 5h-2z" fill="#ffd782"/><path d="m48 40 1 1h-6a2 2 0 0 1 0-4h4.327a2.7 2.7 0 0 0 .673 3z" fill="#d3843d"/><path d="m42 45a2 2 0 0 1 0-4h7l-4 4z" fill="#f9bb4b"/><path d="m34 27h-1v-2h3v-2h-3v-2h-2v2h-1a3 3 0 0 0 0 6h1v2h-4v2h4v2h2v-2h1a3 3 0 0 0 0-6zm-3 0h-1a1 1 0 0 1 0-2h1zm3 4h-1v-2h1a1 1 0 0 1 0 2z"/><path d="m61 27h-4a5.574 5.574 0 0 0 -4 1.581v-9.581a1 1 0 0 0 -1-1h-28.14a4.071 4.071 0 0 0 -3.769-3l-11-1a1 1 0 0 0 -.8.289l-6 6a1 1 0 0 0 -.291.711v19a1 1 0 0 0 1 1h2a.994.994 0 0 0 .581-.187l5.419-3.87v.057a1 1 0 0 0 1 1h28.184a2.863 2.863 0 0 0 .217 2.471 2.976 2.976 0 0 0 -1.174 3.665 2.982 2.982 0 0 0 .773 5.864h6a1 1 0 0 0 .406-.086l9-4a1 1 0 0 0 .462-.418l3.712-6.496h1.42a1 1 0 0 0 1-1v-10a1 1 0 0 0 -1-1zm-49.893 2.55c-.017.035-1.791 3.45-5.107 3.45v2a7.207 7.207 0 0 0 5-2.093v1.578l-6.32 4.515h-.68v-17.586l5.376-5.376 10.553.962a2.266 2.266 0 0 1 1.809 1h-9.738a1 1 0 0 0 -1 1v7a1 1 0 0 0 1 1h4a1 1 0 0 1 0 2h-4c-.39 0-.893.55-.893.55zm1.893 6.45v-5h3a3 3 0 0 0 0-6h-3v-5h13.026a9.961 9.961 0 0 0 0 16zm19 0a8 8 0 1 1 8-8 8.009 8.009 0 0 1 -8 8zm5.974 0a9.961 9.961 0 0 0 0-16h13.026v10.839l-3.707 4.454a4.25 4.25 0 0 0 -.563.707zm5.026 4a1 1 0 0 1 0-2h3.117a3.682 3.682 0 0 0 .613 2zm3.586 2-2 2h-2.586a1 1 0 0 1 0-2zm13.414-5h-1a1 1 0 0 0 -.868.5l-3.838 6.72-8.506 3.78h-5.788a1 1 0 0 1 -.985-1.175 1.083 1.083 0 0 1 1.092-.825h4.893a1 1 0 0 0 .707-.293l9-9-1.414-1.414-4.293 4.293-.293-.293a1.825 1.825 0 0 1 -.586-1.293 1.914 1.914 0 0 1 .648-1.359l4.983-5.982a3.93 3.93 0 0 1 3.248-1.659h3z"/></g></svg>