<?xml version="1.0" encoding="iso-8859-1"?>
<!-- Generator: Adobe Illustrator 19.0.0, SVG Export Plug-In . SVG Version: 6.00 Build 0)  -->
<svg version="1.1" id="Layer_1" xmlns="http://www.w3.org/2000/svg" xmlns:xlink="http://www.w3.org/1999/xlink" x="0px" y="0px"
	 viewBox="0 0 512.001 512.001" style="enable-background:new 0 0 512.001 512.001;" xml:space="preserve">
<path style="fill:#D6E5F6;" d="M505.184,123.182L388.821,6.818c-9.087-9.089-23.823-9.089-32.912,0
	c-9.09,9.087-9.09,23.824,0,32.912l76.634,76.634H23.273C10.422,116.364,0,126.784,0,139.637c0,12.853,10.422,23.273,23.273,23.273
	h409.27l-76.634,76.636c-9.09,9.087-9.09,23.824,0,32.912c4.543,4.544,10.501,6.816,16.455,6.816c5.958,0,11.913-2.271,16.457-6.817
	l116.364-116.364C514.273,147.005,514.273,132.269,505.184,123.182z"/>
<path style="fill:#4D80C9;" d="M488.727,349.092H79.458l76.637-76.636c9.087-9.087,9.087-23.824,0-32.912
	c-9.087-9.089-23.824-9.089-32.912,0L6.819,355.907c-9.09,9.087-9.09,23.824,0,32.912l116.364,116.364
	c4.541,4.546,10.499,6.817,16.454,6.817c5.958,0,11.913-2.271,16.457-6.817c9.087-9.087,9.087-23.824,0-32.912l-76.636-76.634
	h409.27c12.854,0,23.273-10.42,23.273-23.273C512,359.512,501.582,349.092,488.727,349.092z"/>
<path style="fill:#73A1FB;" d="M355.91,239.545c-9.09,9.087-9.09,23.824,0,32.912c4.541,4.544,10.499,6.816,16.454,6.816
	c5.958,0,11.913-2.271,16.457-6.817l116.364-116.364c9.087-9.087,9.087-23.824,0-32.912L388.821,6.817
	c-9.087-9.089-23.823-9.089-32.912,0c-9.09,9.087-9.09,23.824,0,32.912l76.634,76.636H256v46.545h176.542L355.91,239.545z"/>
<path style="fill:#385C8E;" d="M488.727,349.092H256v46.545h232.727c12.854,0,23.273-10.42,23.273-23.273
	C512,359.512,501.582,349.092,488.727,349.092z"/>
<g>
</g>
<g>
</g>
<g>
</g>
<g>
</g>
<g>
</g>
<g>
</g>
<g>
</g>
<g>
</g>
<g>
</g>
<g>
</g>
<g>
</g>
<g>
</g>
<g>
</g>
<g>
</g>
<g>
</g>
</svg>
